# xmcd CD database file
#
# Track frame offsets:
#	150
#	11390
#	22970
#	36932
#	48752
#	63760
#	75677
#	89860
#	100872
#	112647
#	129495
#	141327
#	156862
#	169417
#	182675
#	196215
#
# Disc length: 2751 seconds
#
# Revision: 0
# Processed by: cddbd v1.4PL0 Copyright (c) Steve Scherf et al.
# Submitted via: CDex 1.40Beta5
#
DISCID=c80abd10
DTITLE=Conway Twitty - 16 Biggest Hits
DYEAR=1900
DGENRE=Country
TTITLE0=Hello Darlin'
TTITLE1=To See An Angel Cry
TTITLE2=Fifteen Years Ago
TTITLE3=I Can't See Me Without You
TTITLE4=(Lost Her Love) On Our Last Date
TTITLE5=She Needs Someone To Hold Her (When She Cries)
TTITLE6=You've Never Been This Far Before
TTITLE7=As Soon As I Hang Up The Phone
TTITLE8=I'm Not Through Loving You Yet
TTITLE9=Don't Cry Joni
TTITLE10=Linda On My Mind
TTITLE11=Touch The Hand
TTITLE12=This Time I've Hurt Her More (Than She Loves Me)
TTITLE13=After All The Good Is Gone
TTITLE14=The Gmae That Daddies Play
TTITLE15=(I Can't Believe) She Gives It All To Me
EXTD=ID3G:   2
EXTT0=
EXTT1=
EXTT2=
EXTT3=
EXTT4=
EXTT5=
EXTT6=
EXTT7=
EXTT8=
EXTT9=
EXTT10=
EXTT11=
EXTT12=
EXTT13=
EXTT14=
EXTT15=
PLAYORDER=
